<svg width="0" height="0" version="1.1" xmlns="http://www.w3.org/2000/svg">
<defs>

<symbol id="mobile" viewBox="0 0 22 33">
    <path d="M17.612 29.584H3.604c-.384 0-.662-.304-.662-.76v-5.51h15.332v5.51c0 .456-.278.76-.662.76zM3.604 2.942h14.008c.384 0 .662.29.662.654v17.396H2.942V3.596c0-.364.278-.654.662-.654zm17.613.697A3.64 3.64 0 0 0 17.577 0H3.64A3.64 3.64 0 0 0 0 3.64v25.24a3.64 3.64 0 0 0 3.64 3.64h13.937a3.64 3.64 0 0 0 3.64-3.64V3.64zM10.837 25h-.175C9.744 25 9 25.783 9 26.75s.744 1.75 1.662 1.75h.175c.92 0 1.663-.783 1.663-1.75S11.756 25 10.837 25"/>
</symbol>

<symbol id="business" viewBox="0 0 27 30">
    <path d="M24.668 21.464a1.478 1.478 0 0 1-2.016.54 1.477 1.477 0 1 1 2.016-.54m-9.73 5.002c0 .814-.663 1.476-1.477 1.476a1.478 1.478 0 0 1-1.476-1.476c0-.815.662-1.477 1.476-1.477s1.476.662 1.476 1.477m-9.985-5.347c-.102.38-.347.699-.688.896-.341.197-.739.25-1.12.147a1.477 1.477 0 0 1-.356-2.704 1.477 1.477 0 0 1 2.164 1.66m-.154-11.112a1.478 1.478 0 0 1-2.016.54 1.477 1.477 0 0 1 .74-2.753 1.478 1.478 0 0 1 1.276 2.214m17.16-1.131c.102-.381.347-.7.688-.896a1.466 1.466 0 0 1 1.12-.148c.38.102.699.346.896.688.197.341.25.739.148 1.12a1.478 1.478 0 0 1-2.851-.764m3.19 8.805a3.523 3.523 0 0 0-4.045.373l-5.211-3.009c0-.031-.003-.062-.005-.093l5.22-3.014c.64.542 1.454.836 2.282.836.596 0 1.2-.152 1.752-.47a3.494 3.494 0 0 0 1.639-2.136 3.495 3.495 0 0 0-.352-2.669 3.494 3.494 0 0 0-2.135-1.638 3.495 3.495 0 0 0-2.668.351 3.494 3.494 0 0 0-1.639 2.136A3.498 3.498 0 0 0 19.93 9.9L14.57 12.95c-.01 0-.037-.002-.097-.002V6.84c1.413-.486 2.415-1.787 2.415-3.312 0-1.94-1.539-3.517-3.478-3.517-1.94 0-3.576 1.578-3.576 3.517 0 1.528 1.029 2.83 2.285 3.315v6.113L6.9 9.91c.257-1.42-.322-2.878-1.642-3.663h.01c-1.68-.942-3.83-.405-4.8 1.275a3.514 3.514 0 0 0 1.29 4.797 3.495 3.495 0 0 0 1.754.467c.832 0 1.65-.297 2.292-.845l5.295 3.056-5.298 3.059a3.522 3.522 0 0 0-4.034-.366A3.52 3.52 0 0 0 .48 22.495a3.494 3.494 0 0 0 2.135 1.639 3.496 3.496 0 0 0 2.668-.351 3.494 3.494 0 0 0 1.64-2.136 3.5 3.5 0 0 0 .057-1.553l5.174-3.032c.014.009-.036.017-.036.026v6.067c-1.256.487-2.253 1.787-2.253 3.31 0 1.94 1.617 3.518 3.556 3.518 1.94 0 3.458-1.578 3.458-3.517 0-1.53-.994-2.834-2.407-3.317v-5.995c.157-.019.147-.04.18-.06l5.239 3.001a3.536 3.536 0 0 0 3.482 4.147c1.216 0 2.406-.63 3.057-1.758a3.52 3.52 0 0 0-1.283-4.803"/>
</symbol>

<symbol id="design-ux" viewBox="0 0 33 25">
    <path d="M32.7292087,11.759 C32.6660783,11.6418261 31.1533391,8.85452174 28.4315565,6.04186957 C24.7494261,2.23682609 20.6014696,0.22526087 16.4358174,0.22526087 C12.2701652,0.22526087 8.1222087,2.23682609 4.44007826,6.04186957 C1.71829565,8.85452174 0.205556522,11.6418261 0.142426087,11.759 C0.00755652174,12.010087 -0.0283130435,12.2879565 0.0209478261,12.5476522 C-0.0283130435,12.8073478 0.00755652174,13.0847391 0.142426087,13.3358261 C0.205556522,13.453 1.71829565,16.2403043 4.44007826,19.0534348 C8.1222087,22.8584783 12.2701652,24.8695652 16.4358174,24.8695652 C20.6014696,24.8695652 24.7494261,22.8584783 28.4315565,19.0534348 C31.1533391,16.2403043 32.6660783,13.453 32.7292087,13.3358261 C32.8640783,13.0852174 32.8994696,12.8073478 32.8502087,12.5481304 C32.8999478,12.2879565 32.8640783,12.010087 32.7292087,11.759 Z M16.4358174,22.4782609 C8.79464348,22.4782609 3.51368696,14.3339565 2.44716522,12.5466957 C3.51033913,10.7584783 8.77407826,2.61656522 16.4358174,2.61656522 C24.076513,2.61656522 29.3579478,10.7603913 30.4239913,12.5476522 C29.356513,14.3363478 24.0760348,22.4782609 16.4358174,22.4782609 Z M18.3104565,12.4490348 C18.3104565,11.8756 18.7753261,11.2533826 19.3487609,11.2533826 L21.8859348,11.2533826 C21.3880652,8.86207826 19.1349783,6.87346957 16.4285,6.87346957 C13.357587,6.87346957 10.8682391,9.41973043 10.8682391,12.4906435 C10.8682391,15.5615565 13.357587,18.1236 16.4285,18.1236 C19.154587,18.1236 21.4210652,16.0359913 21.8959783,13.644687 L19.3487609,13.644687 C18.7753261,13.644687 18.3104565,13.0224696 18.3104565,12.4490348 Z"/>
</symbol>

<symbol id="front-end" viewBox="0 0 28 29">
    <path d="M13.4814815,2.72839506 C14.2348395,2.72839506 14.845679,2.11755556 14.845679,1.36419753 C14.845679,0.610839506 14.2348395,0 13.4814815,0 L1.60493827,0 C1.20771605,0 0.77117284,0.0905185185 0.521765432,0.361271605 C0.251012346,0.610679012 0,0.886728395 0,1.28395062 L0,13.1604938 C0,13.9138519 0.610839506,14.5246914 1.36419753,14.5246914 C2.11755556,14.5246914 2.72839506,13.9138519 2.72839506,13.1604938 L2.72839506,2.72839506 L13.4814815,2.72839506 Z M26.6358025,13.4753086 C25.8824444,13.4753086 25.2716049,14.0861481 25.2716049,14.8395062 L25.2716049,25.5925926 L14.8395062,25.5925926 C14.0861481,25.5925926 13.4753086,26.2034321 13.4753086,26.9567901 C13.4753086,27.7101481 14.0861481,28.3209877 14.8395062,28.3209877 L26.7160494,28.3209877 C27.1132716,28.3209877 27.389321,28.0699753 27.6387284,27.7992222 C27.9094815,27.5498148 28,27.1132716 28,26.7160494 L28,14.8395062 C28,14.0861481 27.3891605,13.4753086 26.6358025,13.4753086 Z M12.7160494,19.7777778 C12.7160494,20.4425432 13.2549877,20.9814815 13.9197531,20.9814815 C14.5845185,20.9814815 15.1234568,20.4425432 15.1234568,19.7777778 L15.1234568,16.4274691 L18.2461852,18.1840741 C18.4357284,18.2935309 18.6827284,18.3455309 18.887037,18.3455309 C19.303037,18.3455309 19.7277037,18.1295062 19.9506296,17.7435185 C20.2830123,17.1676667 20.095716,16.4314815 19.5200247,16.0992593 L16.5382099,14.3747531 L19.5275679,12.6502469 C20.1032593,12.3178642 20.3017901,11.581679 19.9694074,11.0059877 C19.6370247,10.4301358 18.8210741,10.2332099 18.2455432,10.5654321 L15.1234568,12.322037 L15.1234568,8.86419753 C15.1234568,8.1994321 14.5845185,7.66049383 13.9197531,7.66049383 C13.2549877,7.66049383 12.7160494,8.1994321 12.7160494,8.86419753 L12.7160494,12.2578395 L9.86503704,10.5654321 C9.28934568,10.2328889 8.59344444,10.4302963 8.26090123,11.0059877 C7.92851852,11.581679 8.14582716,12.3178642 8.72151852,12.6502469 L11.7184198,14.3747531 L8.73660494,16.0992593 C8.16091358,16.4314815 7.96607407,17.1676667 8.29861728,17.7435185 C8.52154321,18.1296667 8.9274321,18.3455309 9.3432716,18.3455309 C9.54758025,18.3455309 9.67485185,18.2935309 9.86439506,18.1840741 L12.7160494,16.4916667 L12.7160494,19.7777778 Z"/>
</symbol>

<symbol id="infraestrutura" viewBox="0 0 30 30">
    <path d="M15.0108,25.04175 C9.5013,25.04175 5.0188,20.55925 5.0188,15.04975 C5.0188,9.54075 9.5013,5.05825 15.0108,5.05825 C20.5203,5.05825 25.0023,9.54075 25.0023,15.04975 C25.0023,20.55925 20.5203,25.04175 15.0108,25.04175 M29.6763,12.94725 L27.1988,12.48625 C26.8753,10.94175 26.2833,9.50225 25.4458,8.22425 L26.9118,6.11325 C27.0673,5.95775 27.0718,5.70325 26.9163,5.54775 L24.5103,3.13975 C24.3553,2.98425 24.1018,2.98425 23.9463,3.13975 L21.8363,4.59625 C20.5578,3.75875 19.1188,3.14725 17.5743,2.82375 L17.1133,0.35425 C17.1133,0.13425 16.9333,0.00025 16.7138,0.00025 L13.3078,0.00025 C13.0878,0.00025 12.9083,0.13425 12.9083,0.35425 L12.4468,2.84675 C10.9023,3.17025 9.4628,3.76975 8.1843,4.60775 L6.0738,3.14575 C5.9183,2.99025 5.6638,2.98725 5.5083,3.14275 L3.1003,5.54925 C2.9448,5.70475 2.9448,5.95875 3.1003,6.11425 L4.5568,8.22475 C3.7193,9.50325 3.1083,10.94175 2.7848,12.48625 L0.3348,12.94775 C0.1148,12.94775 -0.0002,13.12775 -0.0002,13.34725 L-0.0002,16.75325 C-0.0002,16.97275 0.1148,17.15275 0.3348,17.15275 L2.8173,17.61425 C3.1408,19.15875 3.7358,20.59775 4.5733,21.87625 L3.1088,23.98725 C2.9533,24.14225 2.9493,24.39675 3.1043,24.55225 L5.5108,26.96075 C5.6663,27.11625 5.9193,27.11625 6.0748,26.96075 L8.1853,25.50375 C9.4638,26.34175 10.9028,26.95275 12.4468,27.27625 L12.9083,29.69575 C12.9083,29.91575 13.0878,30.00025 13.3078,30.00025 L16.7138,30.00025 C16.9333,30.00025 17.1133,29.91575 17.1133,29.69575 L17.5748,27.22825 C19.1193,26.90475 20.5583,26.31775 21.8368,25.48025 L23.9478,26.94875 C24.1028,27.10375 24.3573,27.10975 24.5128,26.95475 L26.9213,24.54925 C27.0763,24.39375 27.0763,24.14075 26.9213,23.98575 L25.4648,21.87525 C26.3023,20.59675 26.9133,19.15825 27.2368,17.61375 L29.6763,17.15225 C29.8958,17.15225 29.9998,16.97275 29.9998,16.75275 L29.9998,13.34725 C29.9998,13.12725 29.8958,12.94725 29.6763,12.94725 Z M15.01075,10.51975 C12.51275,10.51975 10.48025,12.55225 10.48025,15.04975 C10.48025,17.54775 12.51275,19.58025 15.01075,19.58025 C17.50875,19.58025 19.54075,17.54775 19.54075,15.04975 C19.54075,12.55225 17.50875,10.51975 15.01075,10.51975 Z M15.01075,17.08025 C13.89125,17.08025 12.98025,16.16925 12.98025,15.04975 C12.98025,13.93075 13.89125,13.01975 15.01075,13.01975 C16.13025,13.01975 17.04075,13.93075 17.04075,15.04975 C17.04075,16.16925 16.13025,17.08025 15.01075,17.08025 Z"/>
</symbol>

<symbol id="programacao" viewBox="0 0 25 29">
    <path d="M13.6557091,14.1908405 L8.49666552,9.03212282 C7.89231668,8.42761104 6.91189961,8.42777399 6.30755078,9.03228576 C5.70303901,9.63679753 5.70303901,10.6168887 6.30771372,11.2214005 L10.5128997,15.4260976 L6.30771372,19.6309577 C5.70303901,20.2354694 5.70303901,21.2155606 6.30755078,21.8200724 C6.60996961,22.1223283 7.00591667,22.2733747 7.40218962,22.2733747 C7.79829962,22.2733747 8.19440963,22.1223283 8.49666552,21.8200724 L13.6557091,16.6615176 C13.9938121,16.3234147 14.1425773,15.8678311 14.1024938,15.4260976 C14.1425773,14.984527 13.9938121,14.5289435 13.6557091,14.1908405 Z M23.3169804,19.5529414 L15.8216862,19.5529414 C14.9667338,19.5529414 14.273745,20.2459302 14.273745,21.1008826 C14.273745,21.955835 14.9667338,22.6488238 15.8216862,22.6488238 L23.3169804,22.6488238 C24.1719328,22.6488238 24.8649216,21.955835 24.8649216,21.1008826 C24.8649216,20.2459302 24.1719328,19.5529414 23.3169804,19.5529414 Z M23.398451,25.9076474 L3.38063839,25.9076474 C3.11569604,25.9076474 2.93287604,25.6961497 2.93287604,25.4312074 L2.93287604,3.47879416 C2.93287604,3.2138518 3.11569604,2.93294121 3.38063839,2.93294121 L23.398451,2.93294121 C24.2084316,2.93294121 24.8649216,2.2764512 24.8649216,1.46647061 C24.8649216,0.656490008 24.2084316,0 23.398451,0 L3.38063839,0 C1.49394249,0 -6.51764713e-05,1.59193531 -6.51764713e-05,3.47879416 L-6.51764713e-05,25.4312074 C-6.51764713e-05,27.3180662 1.49394249,28.8405886 3.38063839,28.8405886 L23.398451,28.8405886 C24.2084316,28.8405886 24.8649216,28.1840986 24.8649216,27.374118 C24.8649216,26.5641374 24.2084316,25.9076474 23.398451,25.9076474 Z"/>
</symbol>

</defs>
</svg>